<mxfile host="65bd71144e">
    <diagram name="Page-1" id="e7e014a7-5840-1c2e-5031-d8a46d1fe8dd">
        <mxGraphModel dx="592" dy="484" grid="1" gridSize="10" guides="1" tooltips="1" connect="1" arrows="1" fold="1" page="1" pageScale="1" pageWidth="1169" pageHeight="826" background="none" math="0" shadow="0">
            <root>
                <mxCell id="0"/>
                <mxCell id="1" parent="0"/>
                <mxCell id="2" value="Admin" style="swimlane;whiteSpace=wrap" parent="1" vertex="1">
                    <mxGeometry x="150" y="20" width="280" height="780" as="geometry"/>
                </mxCell>
                <mxCell id="coWxCeMdqgrI4QlaSuaD-64" value="" style="ellipse;html=1;shape=startState;fillColor=#000000;strokeColor=#ff0000;" parent="2" vertex="1">
                    <mxGeometry x="120" y="50" width="30" height="30" as="geometry"/>
                </mxCell>
                <mxCell id="coWxCeMdqgrI4QlaSuaD-65" value="" style="edgeStyle=orthogonalEdgeStyle;html=1;verticalAlign=bottom;endArrow=open;endSize=8;strokeColor=#ff0000;rounded=0;" parent="2" source="coWxCeMdqgrI4QlaSuaD-64" edge="1">
                    <mxGeometry relative="1" as="geometry">
                        <mxPoint x="135" y="140" as="targetPoint"/>
                    </mxGeometry>
                </mxCell>
                <mxCell id="coWxCeMdqgrI4QlaSuaD-66" value="Login" style="rounded=1;whiteSpace=wrap;html=1;arcSize=40;fontColor=#000000;fillColor=#ffffc0;strokeColor=#ff0000;" parent="2" vertex="1">
                    <mxGeometry x="75" y="140" width="120" height="40" as="geometry"/>
                </mxCell>
                <mxCell id="coWxCeMdqgrI4QlaSuaD-67" value="" style="edgeStyle=orthogonalEdgeStyle;html=1;verticalAlign=bottom;endArrow=open;endSize=8;strokeColor=#ff0000;rounded=0;" parent="2" source="coWxCeMdqgrI4QlaSuaD-66" edge="1">
                    <mxGeometry relative="1" as="geometry">
                        <mxPoint x="380" y="160" as="targetPoint"/>
                        <Array as="points">
                            <mxPoint x="288" y="160"/>
                            <mxPoint x="288" y="161"/>
                        </Array>
                    </mxGeometry>
                </mxCell>
                <mxCell id="coWxCeMdqgrI4QlaSuaD-113" value="pilih menu" style="rounded=1;whiteSpace=wrap;html=1;arcSize=40;fontColor=#000000;fillColor=#ffffc0;strokeColor=#ff0000;" parent="2" vertex="1">
                    <mxGeometry x="80" y="540" width="120" height="40" as="geometry"/>
                </mxCell>
                <mxCell id="coWxCeMdqgrI4QlaSuaD-114" value="" style="edgeStyle=orthogonalEdgeStyle;html=1;verticalAlign=bottom;endArrow=open;endSize=8;strokeColor=#ff0000;rounded=0;" parent="2" source="coWxCeMdqgrI4QlaSuaD-113" edge="1">
                    <mxGeometry relative="1" as="geometry">
                        <mxPoint x="140" y="640" as="targetPoint"/>
                    </mxGeometry>
                </mxCell>
                <mxCell id="coWxCeMdqgrI4QlaSuaD-109" value="" style="ellipse;html=1;shape=endState;fillColor=#000000;strokeColor=#ff0000;" parent="2" vertex="1">
                    <mxGeometry x="125" y="710" width="30" height="30" as="geometry"/>
                </mxCell>
                <mxCell id="3" value="Menu pada admin" style="swimlane;whiteSpace=wrap;startSize=23;" parent="1" vertex="1">
                    <mxGeometry x="430" y="20" width="280" height="780" as="geometry"/>
                </mxCell>
                <mxCell id="coWxCeMdqgrI4QlaSuaD-70" value="menampilkan menu admin" style="rounded=1;whiteSpace=wrap;html=1;arcSize=40;fontColor=#000000;fillColor=#ffffc0;strokeColor=#ff0000;" parent="3" vertex="1">
                    <mxGeometry x="100" y="140" width="120" height="40" as="geometry"/>
                </mxCell>
                <mxCell id="coWxCeMdqgrI4QlaSuaD-71" value="" style="edgeStyle=orthogonalEdgeStyle;html=1;verticalAlign=bottom;endArrow=open;endSize=8;strokeColor=#ff0000;rounded=0;" parent="3" source="coWxCeMdqgrI4QlaSuaD-70" edge="1">
                    <mxGeometry relative="1" as="geometry">
                        <mxPoint x="160" y="240" as="targetPoint"/>
                    </mxGeometry>
                </mxCell>
                <mxCell id="coWxCeMdqgrI4QlaSuaD-99" value="Beranda" style="rounded=1;whiteSpace=wrap;html=1;arcSize=40;fontColor=#000000;fillColor=#ffffc0;strokeColor=#ff0000;" parent="3" vertex="1">
                    <mxGeometry x="100" y="240" width="120" height="40" as="geometry"/>
                </mxCell>
                <mxCell id="coWxCeMdqgrI4QlaSuaD-102" value="Kepribadian" style="rounded=1;whiteSpace=wrap;html=1;arcSize=40;fontColor=#000000;fillColor=#ffffc0;strokeColor=#ff0000;" parent="3" vertex="1">
                    <mxGeometry x="100" y="310" width="120" height="40" as="geometry"/>
                </mxCell>
                <mxCell id="coWxCeMdqgrI4QlaSuaD-103" value="" style="edgeStyle=orthogonalEdgeStyle;html=1;verticalAlign=bottom;endArrow=open;endSize=8;strokeColor=#ff0000;rounded=0;entryX=0.5;entryY=0;entryDx=0;entryDy=0;" parent="3" source="coWxCeMdqgrI4QlaSuaD-102" edge="1" target="coWxCeMdqgrI4QlaSuaD-105">
                    <mxGeometry relative="1" as="geometry">
                        <mxPoint x="160" y="443" as="targetPoint"/>
                    </mxGeometry>
                </mxCell>
                <mxCell id="coWxCeMdqgrI4QlaSuaD-104" value="" style="edgeStyle=orthogonalEdgeStyle;html=1;verticalAlign=bottom;endArrow=open;endSize=8;strokeColor=#ff0000;rounded=0;exitX=0.5;exitY=1;exitDx=0;exitDy=0;entryX=0.5;entryY=0;entryDx=0;entryDy=0;" parent="3" source="coWxCeMdqgrI4QlaSuaD-99" target="coWxCeMdqgrI4QlaSuaD-102" edge="1">
                    <mxGeometry relative="1" as="geometry">
                        <mxPoint x="170" y="453" as="targetPoint"/>
                        <mxPoint x="170" y="393" as="sourcePoint"/>
                    </mxGeometry>
                </mxCell>
                <mxCell id="coWxCeMdqgrI4QlaSuaD-105" value="Indikasi" style="rounded=1;whiteSpace=wrap;html=1;arcSize=40;fontColor=#000000;fillColor=#ffffc0;strokeColor=#ff0000;" parent="3" vertex="1">
                    <mxGeometry x="100" y="380" width="120" height="40" as="geometry"/>
                </mxCell>
                <mxCell id="coWxCeMdqgrI4QlaSuaD-106" value="" style="edgeStyle=orthogonalEdgeStyle;html=1;verticalAlign=bottom;endArrow=open;endSize=8;strokeColor=#ff0000;rounded=0;exitX=0.5;exitY=1;exitDx=0;exitDy=0;" parent="3" source="coWxCeMdqgrI4QlaSuaD-105" edge="1">
                    <mxGeometry relative="1" as="geometry">
                        <mxPoint x="160" y="510" as="targetPoint"/>
                        <Array as="points">
                            <mxPoint x="160" y="470"/>
                            <mxPoint x="160" y="470"/>
                        </Array>
                    </mxGeometry>
                </mxCell>
                <mxCell id="coWxCeMdqgrI4QlaSuaD-107" value="Aturan" style="rounded=1;whiteSpace=wrap;html=1;arcSize=40;fontColor=#000000;fillColor=#ffffc0;strokeColor=#ff0000;" parent="3" vertex="1">
                    <mxGeometry x="95" y="440" width="120" height="40" as="geometry"/>
                </mxCell>
                <mxCell id="4" value="Histori" style="rounded=1;whiteSpace=wrap;html=1;arcSize=40;fontColor=#000000;fillColor=#ffffc0;strokeColor=#ff0000;" vertex="1" parent="3">
                    <mxGeometry x="100" y="510" width="120" height="40" as="geometry"/>
                </mxCell>
                <mxCell id="coWxCeMdqgrI4QlaSuaD-108" value="" style="edgeStyle=orthogonalEdgeStyle;html=1;verticalAlign=bottom;endArrow=open;endSize=8;strokeColor=#ff0000;rounded=0;" parent="1" source="coWxCeMdqgrI4QlaSuaD-107" edge="1">
                    <mxGeometry relative="1" as="geometry">
                        <mxPoint x="340" y="560" as="targetPoint"/>
                        <Array as="points">
                            <mxPoint x="340" y="480"/>
                        </Array>
                    </mxGeometry>
                </mxCell>
                <mxCell id="coWxCeMdqgrI4QlaSuaD-116" value="" style="edgeStyle=orthogonalEdgeStyle;html=1;verticalAlign=bottom;endArrow=open;endSize=8;strokeColor=#ff0000;rounded=0;entryX=0.75;entryY=0;entryDx=0;entryDy=0;exitX=0;exitY=0.5;exitDx=0;exitDy=0;" parent="1" source="coWxCeMdqgrI4QlaSuaD-105" target="coWxCeMdqgrI4QlaSuaD-113" edge="1">
                    <mxGeometry relative="1" as="geometry">
                        <mxPoint x="285" y="540" as="targetPoint"/>
                        <mxPoint x="285.0666666666666" y="470" as="sourcePoint"/>
                    </mxGeometry>
                </mxCell>
                <mxCell id="coWxCeMdqgrI4QlaSuaD-117" value="" style="edgeStyle=orthogonalEdgeStyle;html=1;verticalAlign=bottom;endArrow=open;endSize=8;strokeColor=#ff0000;rounded=0;entryX=0.5;entryY=0;entryDx=0;entryDy=0;exitX=0;exitY=0.5;exitDx=0;exitDy=0;" parent="1" source="coWxCeMdqgrI4QlaSuaD-102" target="coWxCeMdqgrI4QlaSuaD-113" edge="1">
                    <mxGeometry relative="1" as="geometry">
                        <mxPoint x="260" y="560" as="targetPoint"/>
                        <mxPoint x="500" y="480" as="sourcePoint"/>
                    </mxGeometry>
                </mxCell>
                <mxCell id="coWxCeMdqgrI4QlaSuaD-118" value="" style="edgeStyle=orthogonalEdgeStyle;html=1;verticalAlign=bottom;endArrow=open;endSize=8;strokeColor=#ff0000;rounded=0;entryX=0.25;entryY=0;entryDx=0;entryDy=0;exitX=0;exitY=0.5;exitDx=0;exitDy=0;" parent="1" source="coWxCeMdqgrI4QlaSuaD-99" target="coWxCeMdqgrI4QlaSuaD-113" edge="1">
                    <mxGeometry relative="1" as="geometry">
                        <mxPoint x="230" y="447" as="targetPoint"/>
                        <mxPoint x="500" y="270" as="sourcePoint"/>
                    </mxGeometry>
                </mxCell>
                <mxCell id="5" value="" style="edgeStyle=orthogonalEdgeStyle;html=1;verticalAlign=bottom;endArrow=open;endSize=8;strokeColor=#ff0000;rounded=0;exitX=0;exitY=0.5;exitDx=0;exitDy=0;entryX=1;entryY=0.5;entryDx=0;entryDy=0;" edge="1" parent="1" source="4" target="coWxCeMdqgrI4QlaSuaD-113">
                    <mxGeometry relative="1" as="geometry">
                        <mxPoint x="390" y="580" as="targetPoint"/>
                        <mxPoint x="535" y="490" as="sourcePoint"/>
                        <Array as="points">
                            <mxPoint x="440" y="550"/>
                            <mxPoint x="440" y="580"/>
                        </Array>
                    </mxGeometry>
                </mxCell>
            </root>
        </mxGraphModel>
    </diagram>
</mxfile>